<svg viewBox="-21 0 512 512" xmlns="http://www.w3.org/2000/svg"><path d="M410.668 405.332H165.332c-32.363 0-58.664-26.3-58.664-58.664v-288c0-32.363 26.3-58.668 58.664-58.668h181.504c21.059 0 41.687 8.535 56.555 23.445l42.496 42.496c15.125 15.125 23.445 35.223 23.445 56.575v224.152c0 32.363-26.3 58.664-58.664 58.664zM165.332 32c-14.7 0-26.664 11.969-26.664 26.668v288c0 14.7 11.965 26.664 26.664 26.664h245.336c14.7 0 26.664-11.965 26.664-26.664V122.516c0-12.82-4.992-24.871-14.059-33.942l-42.496-42.496C371.84 37.121 359.488 32 346.836 32zm0 0"/><path d="M314.668 512h-256C26.305 512 0 485.695 0 453.332V112c0-32.363 26.305-58.668 58.668-58.668h10.664c8.832 0 16 7.168 16 16s-7.168 16-16 16H58.668C43.968 85.332 32 97.301 32 112v341.332C32 468.032 43.969 480 58.668 480h256c14.7 0 26.664-11.969 26.664-26.668v-10.664c0-8.832 7.168-16 16-16s16 7.168 16 16v10.664c0 32.363-26.3 58.668-58.664 58.668zm0 0M368 181.332H208c-8.832 0-16-7.168-16-16s7.168-16 16-16h160c8.832 0 16 7.168 16 16s-7.168 16-16 16zm0 0"/><path d="M368 245.332H208c-8.832 0-16-7.168-16-16s7.168-16 16-16h160c8.832 0 16 7.168 16 16s-7.168 16-16 16zm0 0M368 309.332H208c-8.832 0-16-7.168-16-16s7.168-16 16-16h160c8.832 0 16 7.168 16 16s-7.168 16-16 16zm0 0"/></svg>